<svg version="1.1" id="Layer_1" xmlns="http://www.w3.org/2000/svg" xmlns:xlink="http://www.w3.org/1999/xlink" x="0px" y="0px"
	 width="100%" viewBox="0 0 590 547" enable-background="new 0 0 590 547" xml:space="preserve">
<path fill="#32B44A" opacity="1.000000" stroke="none" 
	d="
M302.000000,548.000000 
	C298.969879,548.000000 295.939728,548.000000 292.343567,547.670654 
	C289.552155,545.021423 286.494629,543.079163 285.242035,540.318054 
	C279.012512,526.586670 273.268524,512.635254 267.334351,498.769531 
	C256.357330,473.120605 245.137375,447.571228 234.585709,421.748627 
	C232.597717,416.883453 230.339066,415.919739 225.659851,415.903534 
	C173.454025,415.723114 121.241135,415.741669 69.048538,414.744049 
	C53.967014,414.455750 40.560112,407.278534 29.009497,397.457306 
	C16.151196,386.524170 7.275806,372.961090 2.943453,356.529938 
	C2.693431,355.581726 1.665764,354.838593 1.000002,354.000000 
	C1.000000,257.312439 1.000000,160.624878 1.359614,63.349442 
	C2.138222,62.082237 2.763282,61.454021 2.946300,60.716156 
	C8.616225,37.857014 21.754490,20.650398 42.675591,9.948648 
	C50.311527,6.042646 58.865078,3.930517 67.000000,1.000000 
	C219.354233,1.000000 371.708466,1.000000 524.695862,1.366728 
	C526.648254,1.847771 528.016357,1.774734 529.279602,2.103852 
	C559.478577,9.971969 579.294067,28.822437 588.874023,58.503674 
	C589.378967,60.068203 590.282227,61.504177 591.000000,62.999996 
	C591.000000,159.687561 591.000000,256.375122 590.602356,353.545135 
	C589.838989,354.290863 589.219666,354.495605 589.143555,354.825745 
	C580.685181,391.477417 548.222412,415.891022 511.012787,415.973663 
	C462.554016,416.081299 414.094788,415.995789 365.635773,416.011963 
	C363.102173,416.012817 361.118805,415.648285 359.651276,419.302124 
	C352.093231,438.120361 343.858765,456.665924 335.955627,475.346954 
	C329.196014,491.324860 322.899750,507.508850 315.743469,523.304932 
	C311.869171,531.856812 309.818359,541.587036 302.000000,548.000000 
M479.463684,266.738495 
	C479.654877,266.562927 479.829651,266.372314 480.831146,265.677521 
	C481.626862,265.051483 482.422577,264.425415 483.639496,263.467926 
	C484.782623,271.771454 482.953156,278.662018 479.265656,285.254517 
	C473.262787,295.986389 462.646362,293.776398 453.250916,294.078522 
	C453.250916,305.044281 453.250916,315.311951 453.250916,325.993561 
	C460.615356,325.993561 467.871796,326.853333 474.819427,325.756775 
	C482.070587,324.612274 489.732300,322.792694 495.969238,319.141205 
	C511.797180,309.874695 518.552002,294.521515 518.841309,276.866882 
	C519.389587,243.401581 519.000000,209.920929 519.000000,176.446655 
	C519.000000,174.695557 519.000000,172.944458 519.000000,171.217163 
	C507.334351,171.217163 496.394165,171.217163 485.276855,171.217163 
	C485.024323,174.486755 484.786285,177.568817 484.450562,181.915436 
	C474.908875,171.628189 464.631805,167.605759 452.013702,168.912872 
	C432.255493,170.959656 416.929688,181.463867 409.839630,200.856110 
	C405.394989,213.012863 406.928253,225.389847 407.328705,237.616272 
	C407.584717,245.434067 410.783142,252.987823 416.543762,259.155182 
	C427.908661,271.322479 441.914581,276.350800 458.196014,274.887543 
	C465.753418,274.208344 473.292877,272.571411 479.463684,266.738495 
M108.000000,146.500473 
	C108.000000,140.075974 108.000000,133.651474 108.000000,127.378693 
	C95.931686,127.378693 84.545097,127.378693 73.388374,127.378693 
	C73.388374,175.454788 73.388374,223.152176 73.388374,270.771851 
	C85.060196,270.771851 96.342369,270.771851 107.758911,270.771851 
	C107.954185,268.397583 108.131790,266.238159 108.352928,263.549347 
	C111.646637,265.818573 114.217644,267.792053 116.975441,269.455902 
	C131.110718,277.984222 145.476120,276.097626 159.584381,269.672699 
	C172.651047,263.722107 181.168518,253.789307 184.292603,239.416916 
	C186.420853,229.625885 186.606400,219.899979 185.013794,210.059265 
	C183.393082,200.044724 179.689209,191.022415 172.876358,183.369156 
	C159.107727,167.902084 129.321564,162.649490 112.053993,178.347549 
	C111.113319,179.202744 109.643799,179.476242 108.000000,180.207565 
	C108.000000,168.805878 108.000000,158.153046 108.000000,146.500473 
M373.516663,256.987640 
	C382.976349,247.297058 387.808136,235.440002 387.832825,222.140182 
	C387.856964,209.137360 382.688660,197.635376 373.666901,188.247070 
	C354.410492,168.208328 323.937256,163.960831 299.922760,178.079453 
	C284.538574,187.124146 274.842285,200.511597 273.114441,218.517502 
	C271.299194,237.434311 279.784058,252.361389 294.259857,263.493530 
	C317.335327,281.239044 352.661316,279.022003 373.516663,256.987640 
M214.000000,244.500000 
	C214.000000,253.589554 214.000000,262.679108 214.000000,271.617615 
	C225.738464,271.617615 236.793900,271.617615 247.998779,271.617615 
	C247.998779,236.426605 248.048462,201.617615 247.915237,166.809296 
	C247.903091,163.633011 246.798737,160.442520 246.064651,157.290527 
	C242.301300,141.131744 232.082413,130.705276 216.692810,125.448257 
	C210.857071,123.454788 204.549545,122.842422 198.000015,121.507385 
	C198.000015,132.110016 198.106216,141.588013 197.942535,151.061356 
	C197.885071,154.387650 198.448822,156.138214 202.224319,157.288879 
	C210.204773,159.721069 213.999863,165.935959 213.999939,174.535782 
	C214.000122,197.523849 214.000000,220.511932 214.000000,244.500000 
z"/>
<path fill="#FFFFFF" opacity="1.000000" stroke="none" 
	d="
M1.000002,354.468658 
	C1.665764,354.838593 2.693431,355.581726 2.943453,356.529938 
	C7.275806,372.961090 16.151196,386.524170 29.009497,397.457306 
	C40.560112,407.278534 53.967014,414.455750 69.048538,414.744049 
	C121.241135,415.741669 173.454025,415.723114 225.659851,415.903534 
	C230.339066,415.919739 232.597717,416.883453 234.585709,421.748627 
	C245.137375,447.571228 256.357330,473.120605 267.334351,498.769531 
	C273.268524,512.635254 279.012512,526.586670 285.242035,540.318054 
	C286.494629,543.079163 289.552155,545.021423 291.888733,547.670654 
	C195.087540,548.000000 98.175079,548.000000 1.000000,548.000000 
	C1.000000,483.645996 1.000000,419.291656 1.000002,354.468658 
z"/>
<path fill="#FFFFFF" opacity="1.000000" stroke="none" 
	d="
M302.468658,548.000000 
	C309.818359,541.587036 311.869171,531.856812 315.743469,523.304932 
	C322.899750,507.508850 329.196014,491.324860 335.955627,475.346954 
	C343.858765,456.665924 352.093231,438.120361 359.651276,419.302124 
	C361.118805,415.648285 363.102173,416.012817 365.635773,416.011963 
	C414.094788,415.995789 462.554016,416.081299 511.012787,415.973663 
	C548.222412,415.891022 580.685181,391.477417 589.143555,354.825745 
	C589.219666,354.495605 589.838989,354.290863 590.602356,354.013794 
	C591.000000,418.608063 591.000000,483.216095 591.000000,548.000000 
	C494.979187,548.000000 398.958252,548.000000 302.468658,548.000000 
z"/>
<path fill="#FFFFFF" opacity="1.000000" stroke="none" 
	d="
M591.000000,62.531338 
	C590.282227,61.504177 589.378967,60.068203 588.874023,58.503674 
	C579.294067,28.822437 559.478577,9.971969 529.279602,2.103852 
	C528.016357,1.774734 526.648254,1.847771 525.164551,1.366728 
	C546.924561,1.000000 568.849060,1.000000 591.000000,1.000000 
	C591.000000,21.353668 591.000000,41.708176 591.000000,62.531338 
z"/>
<path fill="#FFFFFF" opacity="1.000000" stroke="none" 
	d="
M66.531342,1.000000 
	C58.865078,3.930517 50.311527,6.042646 42.675591,9.948648 
	C21.754490,20.650398 8.616225,37.857014 2.946300,60.716156 
	C2.763282,61.454021 2.138222,62.082237 1.359614,62.880783 
	C1.000000,42.404221 1.000000,21.808437 1.000000,1.000000 
	C22.687098,1.000000 44.374889,1.000000 66.531342,1.000000 
z"/>
<path fill="#FFFFFF" opacity="1.000000" stroke="none" 
	d="
M479.166656,266.988586 
	C473.292877,272.571411 465.753418,274.208344 458.196014,274.887543 
	C441.914581,276.350800 427.908661,271.322479 416.543762,259.155182 
	C410.783142,252.987823 407.584717,245.434067 407.328705,237.616272 
	C406.928253,225.389847 405.394989,213.012863 409.839630,200.856110 
	C416.929688,181.463867 432.255493,170.959656 452.013702,168.912872 
	C464.631805,167.605759 474.908875,171.628189 484.450562,181.915436 
	C484.786285,177.568817 485.024323,174.486755 485.276855,171.217163 
	C496.394165,171.217163 507.334351,171.217163 519.000000,171.217163 
	C519.000000,172.944458 519.000000,174.695557 519.000000,176.446655 
	C519.000000,209.920929 519.389587,243.401581 518.841309,276.866882 
	C518.552002,294.521515 511.797180,309.874695 495.969238,319.141205 
	C489.732300,322.792694 482.070587,324.612274 474.819427,325.756775 
	C467.871796,326.853333 460.615356,325.993561 453.250916,325.993561 
	C453.250916,315.311951 453.250916,305.044281 453.250916,294.078522 
	C462.646362,293.776398 473.262787,295.986389 479.265656,285.254517 
	C482.953156,278.662018 484.782623,271.771454 483.639496,263.467926 
	C482.422577,264.425415 481.626862,265.051483 480.152191,265.892456 
	C479.371033,266.401093 479.268860,266.694855 479.166656,266.988586 
M447.417480,209.061234 
	C442.688354,215.056320 441.820526,221.964859 443.624542,229.025238 
	C446.260010,239.339569 455.523926,245.300232 467.461426,244.069305 
	C475.779938,243.211548 483.696442,237.490524 485.756134,229.401474 
	C488.123383,220.104630 484.989899,210.293503 478.060852,204.937271 
	C469.776733,198.533539 454.289490,199.713928 447.417480,209.061234 
M483.518677,263.188263 
	C483.445770,263.370911 483.372864,263.553589 483.299957,263.736237 
	C483.484558,263.686310 483.669189,263.636414 483.518677,263.188263 
z"/>
<path fill="#FFFFFF" opacity="1.000000" stroke="none" 
	d="
M108.000000,147.000336 
	C108.000000,158.153046 108.000000,168.805878 108.000000,180.207565 
	C109.643799,179.476242 111.113319,179.202744 112.053993,178.347549 
	C129.321564,162.649490 159.107727,167.902084 172.876358,183.369156 
	C179.689209,191.022415 183.393082,200.044724 185.013794,210.059265 
	C186.606400,219.899979 186.420853,229.625885 184.292603,239.416916 
	C181.168518,253.789307 172.651047,263.722107 159.584381,269.672699 
	C145.476120,276.097626 131.110718,277.984222 116.975441,269.455902 
	C114.217644,267.792053 111.646637,265.818573 108.352928,263.549347 
	C108.131790,266.238159 107.954185,268.397583 107.758911,270.771851 
	C96.342369,270.771851 85.060196,270.771851 73.388374,270.771851 
	C73.388374,223.152176 73.388374,175.454788 73.388374,127.378693 
	C84.545097,127.378693 95.931686,127.378693 108.000000,127.378693 
	C108.000000,133.651474 108.000000,140.075974 108.000000,147.000336 
M109.263039,228.734787 
	C113.263763,239.883606 119.049042,242.734344 127.946426,243.915359 
	C140.545868,245.587738 152.536301,234.592896 150.094025,219.570663 
	C148.768036,211.414749 144.156891,206.174988 136.904373,203.590576 
	C129.737335,201.036621 122.608955,201.937531 116.426361,207.064484 
	C109.796150,212.562653 108.318436,219.826645 109.263039,228.734787 
z"/>
<path fill="#FFFFFF" opacity="1.000000" stroke="none" 
	d="
M373.261078,257.239685 
	C352.661316,279.022003 317.335327,281.239044 294.259857,263.493530 
	C279.784058,252.361389 271.299194,237.434311 273.114441,218.517502 
	C274.842285,200.511597 284.538574,187.124146 299.922760,178.079453 
	C323.937256,163.960831 354.410492,168.208328 373.666901,188.247070 
	C382.688660,197.635376 387.856964,209.137360 387.832825,222.140182 
	C387.808136,235.440002 382.976349,247.297058 373.261078,257.239685 
M339.185486,202.036316 
	C326.696503,196.607544 314.166260,203.397095 309.501709,213.997696 
	C305.225983,223.714767 309.516083,238.434082 321.564575,243.274765 
	C332.811401,247.793365 344.929535,243.106537 350.165649,233.292694 
	C356.811615,220.836548 350.418976,206.733963 339.185486,202.036316 
z"/>
<path fill="#FFFFFF" opacity="1.000000" stroke="none" 
	d="
M214.000000,244.000000 
	C214.000000,220.511932 214.000122,197.523849 213.999939,174.535782 
	C213.999863,165.935959 210.204773,159.721069 202.224319,157.288879 
	C198.448822,156.138214 197.885071,154.387650 197.942535,151.061356 
	C198.106216,141.588013 198.000015,132.110016 198.000015,121.507385 
	C204.549545,122.842422 210.857071,123.454788 216.692810,125.448257 
	C232.082413,130.705276 242.301300,141.131744 246.064651,157.290527 
	C246.798737,160.442520 247.903091,163.633011 247.915237,166.809296 
	C248.048462,201.617615 247.998779,236.426605 247.998779,271.617615 
	C236.793900,271.617615 225.738464,271.617615 214.000000,271.617615 
	C214.000000,262.679108 214.000000,253.589554 214.000000,244.000000 
z"/>
<path fill="#32B44A" opacity="1.000000" stroke="none" 
	d="
M479.315186,266.863525 
	C479.268860,266.694855 479.371033,266.401093 479.730591,266.137024 
	C479.829651,266.372314 479.654877,266.562927 479.315186,266.863525 
z"/>
<path fill="#32B44A" opacity="1.000000" stroke="none" 
	d="
M447.688110,208.809479 
	C454.289490,199.713928 469.776733,198.533539 478.060852,204.937271 
	C484.989899,210.293503 488.123383,220.104630 485.756134,229.401474 
	C483.696442,237.490524 475.779938,243.211548 467.461426,244.069305 
	C455.523926,245.300232 446.260010,239.339569 443.624542,229.025238 
	C441.820526,221.964859 442.688354,215.056320 447.688110,208.809479 
z"/>
<path fill="#32B44A" opacity="1.000000" stroke="none" 
	d="
M483.686218,263.387390 
	C483.669189,263.636414 483.484558,263.686310 483.299957,263.736237 
	C483.372864,263.553589 483.445770,263.370911 483.686218,263.387390 
z"/>
<path fill="#32B44A" opacity="1.000000" stroke="none" 
	d="
M109.150764,228.317184 
	C108.318436,219.826645 109.796150,212.562653 116.426361,207.064484 
	C122.608955,201.937531 129.737335,201.036621 136.904373,203.590576 
	C144.156891,206.174988 148.768036,211.414749 150.094025,219.570663 
	C152.536301,234.592896 140.545868,245.587738 127.946426,243.915359 
	C119.049042,242.734344 113.263763,239.883606 109.150764,228.317184 
z"/>
<path fill="#32B44A" opacity="1.000000" stroke="none" 
	d="
M339.537231,202.212997 
	C350.418976,206.733963 356.811615,220.836548 350.165649,233.292694 
	C344.929535,243.106537 332.811401,247.793365 321.564575,243.274765 
	C309.516083,238.434082 305.225983,223.714767 309.501709,213.997696 
	C314.166260,203.397095 326.696503,196.607544 339.537231,202.212997 
z"/>
</svg>